<?xml version="1.0" encoding="UTF-8" standalone="no"?>
<!DOCTYPE svg PUBLIC "-//W3C//DTD SVG 1.1//EN" "http://www.w3.org/Graphics/SVG/1.1/DTD/svg11.dtd">
<!-- Created with Vectornator (http://vectornator.io/) -->
<svg height="100%" stroke-miterlimit="10" style="fill-rule:nonzero;clip-rule:evenodd;stroke-linecap:round;stroke-linejoin:round;" version="1.1" viewBox="0 0 700 700" width="100%" xml:space="preserve" xmlns="http://www.w3.org/2000/svg" xmlns:vectornator="http://vectornator.io" xmlns:xlink="http://www.w3.org/1999/xlink">
<defs/>
<g id="Untitled" vectornator:layerName="Untitled">
<g opacity="1">
<path d="M175.38 339.14L109.45 339.14C97.997 339.14 88.747 348.472 88.747 359.843L88.747 489.493C88.747 500.946 98.079 510.196 109.45 510.196L175.376 510.196C186.829 510.196 196.079 500.864 196.079 489.493L196.083 359.843C196.165 348.386 186.833 339.14 175.38 339.14ZM174.446 488.56L110.384 488.56L110.384 360.78L174.446 360.78L174.446 488.56Z" fill="#000000" fill-rule="nonzero" opacity="1" stroke="#ecffff" stroke-linecap="round" stroke-linejoin="round" stroke-width="24"/>
<path d="M313.77 262.1L247.844 262.1C236.391 262.1 227.141 271.432 227.141 282.803L227.141 489.493C227.141 500.946 236.473 510.196 247.844 510.196L313.77 510.196C325.223 510.196 334.473 500.864 334.473 489.493L334.473 282.803C334.559 271.346 325.223 262.1 313.77 262.1ZM312.836 488.56L248.774 488.56L248.778 283.74L312.84 283.74L312.836 488.56Z" fill="#000000" fill-rule="nonzero" opacity="1" stroke="#ecffff" stroke-linecap="round" stroke-linejoin="round" stroke-width="24"/>
<path d="M452.16 408.46L386.234 408.46C374.781 408.46 365.531 417.792 365.531 429.163L365.531 489.491C365.531 500.944 374.863 510.194 386.234 510.194L452.16 510.194C463.613 510.194 472.863 500.862 472.863 489.491L472.863 429.163C472.863 417.71 463.617 408.46 452.16 408.46ZM451.226 488.558L387.164 488.558L387.164 430.097L451.226 430.097L451.226 488.558Z" fill="#000000" fill-rule="nonzero" opacity="1" stroke="#ecffff" stroke-linecap="round" stroke-linejoin="round" stroke-width="24"/>
<path d="M590.55 262.1L524.624 262.1C513.171 262.1 503.921 271.432 503.921 282.803L503.921 489.493C503.921 500.946 513.253 510.196 524.624 510.196L590.55 510.196C602.003 510.196 611.253 500.864 611.253 489.493L611.253 282.803C611.253 271.346 602.003 262.1 590.55 262.1ZM589.616 488.56L525.554 488.56L525.554 283.74L589.616 283.74L589.616 488.56Z" fill="#000000" fill-rule="nonzero" opacity="1" stroke="#ecffff" stroke-linecap="round" stroke-linejoin="round" stroke-width="24"/>
<path d="M142.46 237.57C162.995 237.57 179.71 220.855 179.71 200.32C179.71 195.398 178.691 190.816 176.995 186.488L257.772 121.578C264.136 126.586 272.026 129.809 280.764 129.809C287.975 129.809 294.596 127.687 300.28 124.125L384.874 208.719C382.753 213.387 381.48 218.563 381.48 223.992C381.48 244.527 398.195 261.242 418.73 261.242C439.265 261.242 455.98 244.527 455.98 223.992C455.98 218.648 454.792 213.554 452.757 208.972L540.405 119.882C545.581 122.597 551.264 124.21 557.46 124.21C577.995 124.21 594.71 107.495 594.71 86.96C594.71 66.511 577.995 49.796 557.46 49.796C536.925 49.796 520.21 66.425 520.21 86.96C520.21 93.4092 521.991 99.433 524.878 104.694L438.495 192.6C432.726 189.038 426.022 186.831 418.811 186.831C411.682 186.831 405.065 188.952 399.381 192.432L314.787 107.838C316.908 103.17 318.182 97.9943 318.182 92.5651C318.182 72.1161 301.467 55.4011 280.932 55.4011C260.397 55.4011 243.682 72.0301 243.682 92.5651C243.682 96.4674 244.443 100.202 245.549 103.764L163.502 169.69C157.564 165.616 150.35 163.241 142.545 163.241C122.01 163.241 105.295 179.87 105.295 200.405C105.209 220.854 121.924 237.569 142.459 237.569L142.46 237.57ZM557.54 71.44C566.11 71.44 573.153 78.397 573.153 86.881C573.153 95.4513 566.196 102.494 557.54 102.494C548.97 102.494 541.927 95.537 541.927 86.881C542.013 78.3966 548.97 71.44 557.54 71.44ZM434.34 223.91C434.34 232.48 427.383 239.523 418.727 239.523C410.157 239.523 403.114 232.566 403.114 223.91C403.114 215.34 410.071 208.469 418.727 208.469C427.383 208.469 434.34 215.426 434.34 223.91ZM280.85 77.04C289.42 77.04 296.463 83.997 296.463 92.481C296.463 101.051 289.506 108.094 280.85 108.094C272.28 108.094 265.237 101.137 265.237 92.481C265.241 83.9966 272.198 77.04 280.85 77.04ZM142.46 184.88C151.03 184.88 158.073 191.837 158.073 200.321C158.073 208.891 151.116 215.934 142.46 215.934C133.89 215.934 126.847 208.977 126.847 200.321C126.847 191.751 133.89 184.88 142.46 184.88Z" fill="#ecffff" fill-rule="nonzero" opacity="1" stroke="#ecffff" stroke-linecap="round" stroke-linejoin="round" stroke-width="24"/>
</g>
</g>
</svg>
