<?xml version="1.0" encoding="UTF-8" standalone="no"?>
<!DOCTYPE svg PUBLIC "-//W3C//DTD SVG 1.1//EN" "http://www.w3.org/Graphics/SVG/1.1/DTD/svg11.dtd">
<!-- Created with Vectornator (http://vectornator.io/) -->
<svg height="100%" stroke-miterlimit="10" style="fill-rule:nonzero;clip-rule:evenodd;stroke-linecap:round;stroke-linejoin:round;" version="1.1" viewBox="0 0 700 700" width="100%" xml:space="preserve" xmlns="http://www.w3.org/2000/svg" xmlns:vectornator="http://vectornator.io" xmlns:xlink="http://www.w3.org/1999/xlink">
<defs/>
<g id="Untitled" vectornator:layerName="Untitled">
<g opacity="1">
<path d="M540.9 499.07L540.9 141.46C540.939 134.362 538.138 127.546 533.119 122.53L449.174 38.643C444.17 33.6313 437.385 30.811 430.303 30.8032L189.163 30.8032C181.186 30.8032 173.538 33.9712 167.901 39.6118C162.26 45.2524 159.092 52.9008 159.092 60.8738L159.092 499.074C159.092 507.066 162.268 514.726 167.916 520.375C173.569 526.027 181.228 529.199 189.217 529.203L510.767 529.203C518.756 529.199 526.415 526.027 532.068 520.375C537.717 514.726 540.893 507.066 540.893 499.074L540.9 499.07ZM222.88 139.21L350 139.21C354.641 139.21 358.398 142.972 358.398 147.612C358.398 152.249 354.641 156.011 350 156.011L222.88 156.011C218.243 156.011 214.482 152.249 214.482 147.612C214.482 142.972 218.243 139.21 222.88 139.21ZM477.12 420.78L222.88 420.78C218.243 420.78 214.482 417.018 214.482 412.378C214.482 407.741 218.243 403.979 222.88 403.979L477.12 403.979C481.757 403.979 485.518 407.741 485.518 412.378C485.518 417.018 481.757 420.78 477.12 420.78ZM477.12 354.589L222.88 354.589C218.243 354.589 214.482 350.827 214.482 346.187C214.482 341.55 218.243 337.788 222.88 337.788L477.12 337.788C481.757 337.788 485.518 341.55 485.518 346.187C485.518 350.827 481.757 354.589 477.12 354.589ZM477.12 288.398L222.88 288.394C218.243 288.394 214.482 284.636 214.482 279.996C214.482 275.355 218.243 271.597 222.88 271.597L477.12 271.597C481.757 271.597 485.518 275.355 485.518 279.996C485.518 284.636 481.757 288.394 477.12 288.394L477.12 288.398ZM477.12 222.207L222.88 222.203C218.243 222.203 214.482 218.441 214.482 213.805C214.482 209.164 218.243 205.402 222.88 205.402L477.12 205.402C481.757 205.402 485.518 209.164 485.518 213.805C485.518 218.441 481.757 222.203 477.12 222.203L477.12 222.207Z" fill="#ecffff" fill-rule="nonzero" opacity="1" stroke="none"/>
</g>
</g>
</svg>
