<?xml version="1.0" encoding="UTF-8" standalone="no"?>
<!DOCTYPE svg PUBLIC "-//W3C//DTD SVG 1.1//EN" "http://www.w3.org/Graphics/SVG/1.1/DTD/svg11.dtd">
<!-- Created with Vectornator (http://vectornator.io/) -->
<svg height="100%" stroke-miterlimit="10" style="fill-rule:nonzero;clip-rule:evenodd;stroke-linecap:round;stroke-linejoin:round;" version="1.1" viewBox="0 0 700 700" width="100%" xml:space="preserve" xmlns="http://www.w3.org/2000/svg" xmlns:vectornator="http://vectornator.io" xmlns:xlink="http://www.w3.org/1999/xlink">
<defs/>
<g id="Untitled" vectornator:layerName="Untitled">
<g opacity="1">
<path d="M513.47 541.14C511.677 541.144 509.919 540.64 508.4 539.691L350 441.214L191.6 539.714C188.252 541.776 183.986 541.593 180.834 539.249C177.677 536.901 176.271 532.87 177.287 529.073L225.225 350.533L79.3248 227.963C76.3014 225.408 75.1529 221.26 76.4381 217.514C77.7233 213.768 81.1725 211.194 85.1295 211.033L272.869 203.823L341.029 25.0226C342.447 21.2999 346.018 18.8429 349.998 18.8429C353.983 18.8429 357.553 21.2999 358.967 25.0226L427.135 203.813L614.875 211.035C618.836 211.192 622.293 213.766 623.582 217.516C624.867 221.27 623.715 225.422 620.68 227.977L474.81 350.537L522.748 529.077C523.513 531.956 522.896 535.03 521.08 537.393C519.263 539.756 516.455 541.139 513.474 541.143L513.47 541.14ZM350 420.3C351.793 420.304 353.547 420.804 355.07 421.745L497.9 510.581L454.681 349.611C453.713 346.01 454.92 342.174 457.775 339.772L589.325 229.262L420.085 222.777L420.081 222.777C416.237 222.629 412.851 220.199 411.48 216.605L350 55.4152L288.543 216.585C287.171 220.183 283.785 222.613 279.941 222.757L110.671 229.261L242.221 339.771C245.076 342.173 246.283 346.009 245.315 349.611L202.096 510.581L344.926 421.757C346.449 420.812 348.203 420.304 349.996 420.3L350 420.3Z" fill="#ecffff" fill-rule="nonzero" opacity="1" stroke="none"/>
</g>
</g>
</svg>
