<?xml version="1.0" encoding="UTF-8" standalone="no"?>
<!DOCTYPE svg PUBLIC "-//W3C//DTD SVG 1.1//EN" "http://www.w3.org/Graphics/SVG/1.1/DTD/svg11.dtd">
<!-- Created with Vectornator (http://vectornator.io/) -->
<svg height="100%" stroke-miterlimit="10" style="fill-rule:nonzero;clip-rule:evenodd;stroke-linecap:round;stroke-linejoin:round;" version="1.1" viewBox="0 0 479.201 176.835" width="100%" xml:space="preserve" xmlns="http://www.w3.org/2000/svg" xmlns:vectornator="http://vectornator.io" xmlns:xlink="http://www.w3.org/1999/xlink">
<defs/>
<clipPath id="ArtboardFrame">
<rect height="176.835" width="479.201" x="0" y="0"/>
</clipPath>
<g clip-path="url(#ArtboardFrame)" id="Untitled" vectornator:layerName="Untitled">
<path d="M186.861 64.8385L277.603 64.8385C281.517 64.8385 284.69 61.6653 284.69 57.751L284.69 7.0875C284.69 3.17318 281.517-1.711e-07 277.603 0L186.861 0C182.947 1.711e-07 179.774 3.17318 179.774 7.0875L179.774 57.751C179.774 61.6653 182.947 64.8385 186.861 64.8385Z" fill="#000000" fill-rule="evenodd" opacity="1" stroke="#000000" stroke-linecap="round" stroke-linejoin="round" stroke-width="0.803622"/>
<path d="M186.861 62.7085L277.603 62.7085C280.421 62.7085 282.706 60.4238 282.706 57.6055L282.706 6.94196C282.706 4.12364 280.421 1.83894 277.603 1.83895L186.861 1.83895C184.043 1.83895 181.758 4.12365 181.758 6.94196L181.758 57.6055C181.758 60.4238 184.043 62.7085 186.861 62.7085Z" fill="#ffffff" fill-rule="evenodd" opacity="1" stroke="#000000" stroke-linecap="round" stroke-linejoin="round" stroke-width="0.8"/>
<path d="M33.1044 120.084L39.3848 120.084L39.3848 91.7342L33.1044 91.7342L33.1044 120.084Z" fill="#000000" fill-rule="evenodd" opacity="1" stroke="#000000" stroke-linecap="round" stroke-linejoin="round" stroke-width="0.803622"/>
<path d="M42.5628 101.167L45.6904 101.167L45.6904 91.7342L42.5628 91.7342L42.5628 101.167Z" fill="#000000" fill-rule="evenodd" opacity="1" stroke="#000000" stroke-linecap="round" stroke-linejoin="round" stroke-width="0.803622"/>
<path d="M48.8685 120.084L55.1488 120.084L55.1741 101.167L61.4797 101.167L61.4797 120.084L67.76 120.084L67.76 101.193L64.6072 101.193L64.6072 98.0398L48.8685 98.0398L48.8685 120.084Z" fill="#000000" fill-rule="evenodd" opacity="1" stroke="#000000" stroke-linecap="round" stroke-linejoin="round" stroke-width="0.803622"/>
<path d="M74.0909 120.084L80.3713 120.084L80.3713 101.193L77.2185 101.193L77.2185 98.0398L67.7853 98.0398L67.7853 101.167L74.0909 101.167L74.0909 120.084Z" fill="#000000" fill-rule="evenodd" opacity="1" stroke="#000000" stroke-linecap="round" stroke-linejoin="round" stroke-width="0.803622"/>
<path d="M99.3133 120.084L115.052 120.084L115.052 91.7342L108.772 91.7342L108.772 116.931L102.441 116.957L102.466 101.167L108.746 101.167L108.746 98.0398L99.3133 98.0398L99.3133 101.167L96.1605 101.193L96.1605 116.931L99.3133 116.931L99.3133 120.084Z" fill="#000000" fill-rule="evenodd" opacity="1" stroke="#000000" stroke-linecap="round" stroke-linejoin="round" stroke-width="0.803622"/>
<path d="M121.383 120.084L133.969 120.084L133.994 116.931L137.122 116.931L137.122 101.193L133.969 101.193L133.969 98.0398L130.841 98.0398L130.841 116.931L124.51 116.957L124.536 101.167L130.816 101.167L130.816 98.0398L121.383 98.0398L121.383 101.167L118.23 101.193L118.23 116.931L121.383 116.931L121.383 120.084Z" fill="#000000" fill-rule="evenodd" opacity="1" stroke="#000000" stroke-linecap="round" stroke-linejoin="round" stroke-width="0.803622"/>
<path d="M140.3 120.084L146.58 120.084L146.58 98.0398L140.3 98.0398L140.3 120.084Z" fill="#000000" fill-rule="evenodd" opacity="1" stroke="#000000" stroke-linecap="round" stroke-linejoin="round" stroke-width="0.803622"/>
<path d="M140.3 94.8617L146.58 94.8617L146.58 91.7342L140.3 91.7342L140.3 94.8617Z" fill="#000000" fill-rule="evenodd" opacity="1" stroke="#000000" stroke-linecap="round" stroke-linejoin="round" stroke-width="0.803622"/>
<path d="M149.758 120.084L156.039 120.084L156.064 101.167L162.369 101.167L162.369 120.084L168.65 120.084L168.65 101.193L165.497 101.193L165.497 98.0398L149.758 98.0398L149.758 120.084Z" fill="#000000" fill-rule="evenodd" opacity="1" stroke="#000000" stroke-linecap="round" stroke-linejoin="round" stroke-width="0.803622"/>
<path d="M171.828 126.39L174.955 126.39L174.955 123.262L171.828 123.262L171.828 126.39Z" fill="#000000" fill-rule="evenodd" opacity="1" stroke="#000000" stroke-linecap="round" stroke-linejoin="round" stroke-width="0.803622"/>
<path d="M174.981 129.543L187.567 129.543L187.592 126.39L190.719 126.39L190.719 98.0398L174.981 98.0398L174.981 101.167L184.439 101.167L184.439 116.931L178.108 116.957L178.108 101.193L171.828 101.193L171.828 116.931L174.981 116.931L174.981 120.084L184.439 120.084L184.439 126.39L174.981 126.39L174.981 129.543Z" fill="#000000" fill-rule="evenodd" opacity="1" stroke="#000000" stroke-linecap="round" stroke-linejoin="round" stroke-width="0.803622"/>
<path d="M209.661 120.084L225.4 120.084L225.4 101.193L222.247 101.193L222.247 98.0398L209.661 98.0398L209.661 101.167L219.12 101.167L219.12 107.473L209.661 107.498L209.661 110.626L219.12 110.626L219.12 116.931L212.789 116.957L212.789 110.651L206.509 110.651L206.509 116.931L209.661 116.931L209.661 120.084Z" fill="#000000" fill-rule="evenodd" opacity="1" stroke="#000000" stroke-linecap="round" stroke-linejoin="round" stroke-width="0.803622"/>
<path d="M206.509 104.32L209.636 104.32L209.636 101.193L206.509 101.193L206.509 104.32Z" fill="#000000" fill-rule="evenodd" opacity="1" stroke="#000000" stroke-linecap="round" stroke-linejoin="round" stroke-width="0.803622"/>
<path d="M241.189 120.084L247.47 120.084L247.47 91.7342L241.189 91.7342L241.189 120.084Z" fill="#000000" fill-rule="evenodd" opacity="1" stroke="#000000" stroke-linecap="round" stroke-linejoin="round" stroke-width="0.803622"/>
<path d="M253.801 120.084L266.387 120.084L266.412 116.931L269.539 116.931L269.539 101.193L266.387 101.193L266.387 98.0398L263.259 98.0398L263.259 116.931L256.928 116.957L256.953 101.167L263.234 101.167L263.234 98.0398L253.801 98.0398L253.801 101.167L250.648 101.193L250.648 116.931L253.801 116.931L253.801 120.084Z" fill="#000000" fill-rule="evenodd" opacity="1" stroke="#000000" stroke-linecap="round" stroke-linejoin="round" stroke-width="0.803622"/>
<path d="M279.023 120.084L285.303 120.084L285.303 116.957L282.151 116.957L282.176 101.167L285.303 101.167L285.303 98.0398L282.151 98.0398L282.151 91.7342L275.87 91.7342L275.87 98.0145L272.717 98.0398L272.717 101.167L275.87 101.167L275.87 116.931L279.023 116.931L279.023 120.084Z" fill="#000000" fill-rule="evenodd" opacity="1" stroke="#000000" stroke-linecap="round" stroke-linejoin="round" stroke-width="0.803622"/>
<path d="M304.245 120.084L316.831 120.084L316.857 116.931L319.984 116.931L319.984 101.193L316.831 101.193L316.831 98.0398L313.704 98.0398L313.704 116.931L307.373 116.957L307.398 101.167L313.679 101.167L313.679 98.0398L304.245 98.0398L304.245 101.167L301.093 101.193L301.093 116.931L304.245 116.931L304.245 120.084Z" fill="#000000" fill-rule="evenodd" opacity="1" stroke="#000000" stroke-linecap="round" stroke-linejoin="round" stroke-width="0.803622"/>
<path d="M326.315 120.084L332.595 120.084L332.621 101.167L335.748 101.167L335.748 98.0398L332.595 98.0398L332.621 94.8617L338.901 94.8617L338.901 91.7342L329.468 91.7342L329.468 94.8617L326.315 94.887L326.315 98.0145L323.162 98.0398L323.162 101.167L326.315 101.167L326.315 120.084Z" fill="#000000" fill-rule="evenodd" opacity="1" stroke="#000000" stroke-linecap="round" stroke-linejoin="round" stroke-width="0.803622"/>
<path d="M357.843 120.084L367.276 120.084L367.302 116.931L370.429 116.931L370.429 110.651L367.276 110.651L367.276 107.498L364.123 107.498L364.123 104.345L360.971 104.345L360.996 101.167L367.276 101.167L367.276 98.0398L357.843 98.0398L357.843 101.167L354.69 101.193L354.69 107.473L357.843 107.473L357.843 110.626L360.996 110.626L360.996 113.779L364.149 113.779L364.149 116.931L357.843 116.931L357.843 120.084Z" fill="#000000" fill-rule="evenodd" opacity="1" stroke="#000000" stroke-linecap="round" stroke-linejoin="round" stroke-width="0.803622"/>
<path d="M354.69 116.931L357.818 116.931L357.818 113.804L354.69 113.804L354.69 116.931Z" fill="#000000" fill-rule="evenodd" opacity="1" stroke="#000000" stroke-linecap="round" stroke-linejoin="round" stroke-width="0.803622"/>
<path d="M367.302 104.32L370.429 104.32L370.429 101.193L367.302 101.193L367.302 104.32Z" fill="#000000" fill-rule="evenodd" opacity="1" stroke="#000000" stroke-linecap="round" stroke-linejoin="round" stroke-width="0.803622"/>
<path d="M379.913 120.084L386.193 120.084L386.193 116.957L383.04 116.957L383.065 101.167L386.193 101.167L386.193 98.0398L383.04 98.0398L383.04 91.7342L376.76 91.7342L376.76 98.0145L373.607 98.0398L373.607 101.167L376.76 101.167L376.76 116.931L379.913 116.931L379.913 120.084Z" fill="#000000" fill-rule="evenodd" opacity="1" stroke="#000000" stroke-linecap="round" stroke-linejoin="round" stroke-width="0.803622"/>
<path d="M392.524 120.084L408.263 120.084L408.263 98.0398L401.982 98.0398L401.982 116.931L395.652 116.957L395.652 98.0398L389.371 98.0398L389.371 116.931L392.524 116.931L392.524 120.084Z" fill="#000000" fill-rule="evenodd" opacity="1" stroke="#000000" stroke-linecap="round" stroke-linejoin="round" stroke-width="0.803622"/>
<path d="M414.594 120.084L420.874 120.084L420.899 101.167L424.027 101.167L424.027 98.0398L420.874 98.0398L420.899 94.8617L427.18 94.8617L427.18 91.7342L417.746 91.7342L417.746 94.8617L414.594 94.887L414.594 98.0145L411.441 98.0398L411.441 101.167L414.594 101.167L414.594 120.084Z" fill="#000000" fill-rule="evenodd" opacity="1" stroke="#000000" stroke-linecap="round" stroke-linejoin="round" stroke-width="0.803622"/>
<path d="M433.51 120.084L439.791 120.084L439.816 101.167L442.944 101.167L442.944 98.0398L439.791 98.0398L439.816 94.8617L446.096 94.8617L446.096 91.7342L436.663 91.7342L436.663 94.8617L433.51 94.887L433.51 98.0145L430.358 98.0398L430.358 101.167L433.51 101.167L433.51 120.084Z" fill="#000000" fill-rule="evenodd" opacity="1" stroke="#000000" stroke-linecap="round" stroke-linejoin="round" stroke-width="0.803622"/>
<path d="M0 167.376L25.1972 167.376L25.1972 164.249L18.8916 164.249L18.8916 145.332L12.6112 145.332L12.6112 164.223L6.28038 164.249L6.28038 145.332L0 145.332L0 167.376Z" fill="#000000" fill-rule="evenodd" opacity="1" stroke="#000000" stroke-linecap="round" stroke-linejoin="round" stroke-width="0.803622"/>
<path d="M25.2224 164.223L28.35 164.223L28.3752 161.071L31.5028 161.071L31.5028 145.332L25.2224 145.332L25.2224 164.223Z" fill="#000000" fill-rule="evenodd" opacity="1" stroke="#000000" stroke-linecap="round" stroke-linejoin="round" stroke-width="0.803622"/>
<path d="M34.6808 167.376L40.9612 167.376L40.9612 145.332L34.6808 145.332L34.6808 167.376Z" fill="#000000" fill-rule="evenodd" opacity="1" stroke="#000000" stroke-linecap="round" stroke-linejoin="round" stroke-width="0.803622"/>
<path d="M34.6808 142.154L40.9612 142.154L40.9612 139.026L34.6808 139.026L34.6808 142.154Z" fill="#000000" fill-rule="evenodd" opacity="1" stroke="#000000" stroke-linecap="round" stroke-linejoin="round" stroke-width="0.803622"/>
<path d="M50.4448 167.376L56.7252 167.376L56.7252 164.249L53.5724 164.249L53.5976 148.459L56.7252 148.459L56.7252 145.332L53.5724 145.332L53.5724 139.026L47.292 139.026L47.292 145.307L44.1392 145.332L44.1392 148.459L47.292 148.459L47.292 164.223L50.4448 164.223L50.4448 167.376Z" fill="#000000" fill-rule="evenodd" opacity="1" stroke="#000000" stroke-linecap="round" stroke-linejoin="round" stroke-width="0.803622"/>
<path d="M59.9033 167.376L66.1836 167.376L66.2089 148.459L72.5145 148.459L72.5145 167.376L78.7948 167.376L78.7948 148.485L75.642 148.485L75.642 145.332L66.1836 145.332L66.1836 139.026L59.9033 139.026L59.9033 167.376Z" fill="#000000" fill-rule="evenodd" opacity="1" stroke="#000000" stroke-linecap="round" stroke-linejoin="round" stroke-width="0.803622"/>
<path d="M97.7369 167.376L107.17 167.376L107.17 164.249L100.864 164.249L100.89 148.459L107.17 148.459L107.17 145.332L97.7369 145.332L97.7369 148.459L94.5841 148.485L94.5841 164.223L97.7369 164.223L97.7369 167.376Z" fill="#000000" fill-rule="evenodd" opacity="1" stroke="#000000" stroke-linecap="round" stroke-linejoin="round" stroke-width="0.803622"/>
<path d="M107.195 164.223L110.323 164.223L110.323 161.096L107.195 161.096L107.195 164.223Z" fill="#000000" fill-rule="evenodd" opacity="1" stroke="#000000" stroke-linecap="round" stroke-linejoin="round" stroke-width="0.803622"/>
<path d="M107.195 151.612L110.323 151.612L110.323 148.485L107.195 148.485L107.195 151.612Z" fill="#000000" fill-rule="evenodd" opacity="1" stroke="#000000" stroke-linecap="round" stroke-linejoin="round" stroke-width="0.803622"/>
<path d="M116.654 167.376L129.24 167.376L129.265 164.223L132.392 164.223L132.392 148.485L129.24 148.485L129.24 145.332L126.112 145.332L126.112 164.223L119.781 164.249L119.806 148.459L126.087 148.459L126.087 145.332L116.654 145.332L116.654 148.459L113.501 148.485L113.501 164.223L116.654 164.223L116.654 167.376Z" fill="#000000" fill-rule="evenodd" opacity="1" stroke="#000000" stroke-linecap="round" stroke-linejoin="round" stroke-width="0.803622"/>
<path d="M135.57 167.376L141.851 167.376L141.876 148.459L148.182 148.459L148.182 167.376L154.462 167.376L154.462 148.485L151.309 148.485L151.309 145.332L135.57 145.332L135.57 167.376Z" fill="#000000" fill-rule="evenodd" opacity="1" stroke="#000000" stroke-linecap="round" stroke-linejoin="round" stroke-width="0.803622"/>
<path d="M160.793 167.376L167.073 167.376L167.073 148.485L163.92 148.485L163.92 145.332L154.487 145.332L154.487 148.459L160.793 148.459L160.793 167.376Z" fill="#000000" fill-rule="evenodd" opacity="1" stroke="#000000" stroke-linecap="round" stroke-linejoin="round" stroke-width="0.803622"/>
<path d="M170.251 167.376L170.251 173.682L176.532 173.682L176.557 167.376L185.99 167.376L186.015 164.223L189.143 164.223L189.143 148.485L185.99 148.485L185.99 145.332L182.863 145.332L182.863 164.223L176.532 164.249L176.557 148.459L182.837 148.459L182.837 145.332L170.251 145.332L170.251 167.376Z" fill="#000000" fill-rule="evenodd" opacity="1" stroke="#000000" stroke-linecap="round" stroke-linejoin="round" stroke-width="0.803622"/>
<path d="M195.474 167.376L211.213 167.376L211.213 145.332L204.932 145.332L204.932 164.223L198.601 164.249L198.601 145.332L192.321 145.332L192.321 164.223L195.474 164.223L195.474 167.376Z" fill="#000000" fill-rule="evenodd" opacity="1" stroke="#000000" stroke-linecap="round" stroke-linejoin="round" stroke-width="0.803622"/>
<path d="M220.696 167.376L226.977 167.376L226.977 164.249L223.824 164.249L223.849 148.459L226.977 148.459L226.977 145.332L223.824 145.332L223.824 139.026L217.543 139.026L217.543 145.307L214.391 145.332L214.391 148.459L217.543 148.459L217.543 164.223L220.696 164.223L220.696 167.376Z" fill="#000000" fill-rule="evenodd" opacity="1" stroke="#000000" stroke-linecap="round" stroke-linejoin="round" stroke-width="0.803622"/>
<path d="M233.307 167.376L245.893 167.376L245.893 164.249L236.435 164.249L236.46 157.918L249.046 157.918L249.046 148.485L245.893 148.485L245.893 145.332L242.766 145.332L242.766 154.765L236.435 154.79L236.46 148.459L242.741 148.459L242.741 145.332L233.307 145.332L233.307 148.459L230.155 148.485L230.155 164.223L233.307 164.223L233.307 167.376Z" fill="#000000" fill-rule="evenodd" opacity="1" stroke="#000000" stroke-linecap="round" stroke-linejoin="round" stroke-width="0.803622"/>
<path d="M245.919 164.223L249.046 164.223L249.046 161.096L245.919 161.096L245.919 164.223Z" fill="#000000" fill-rule="evenodd" opacity="1" stroke="#000000" stroke-linecap="round" stroke-linejoin="round" stroke-width="0.803622"/>
<path d="M252.224 167.376L258.505 167.376L258.53 151.612L267.963 151.612L267.963 145.332L261.683 145.332L261.683 148.459L258.505 148.485L258.505 145.332L252.224 145.332L252.224 167.376Z" fill="#000000" fill-rule="evenodd" opacity="1" stroke="#000000" stroke-linecap="round" stroke-linejoin="round" stroke-width="0.803622"/>
<path d="M274.294 167.376L283.727 167.376L283.752 164.223L286.88 164.223L286.88 157.943L283.727 157.943L283.727 154.79L280.574 154.79L280.574 151.637L277.421 151.637L277.447 148.459L283.727 148.459L283.727 145.332L274.294 145.332L274.294 148.459L271.141 148.485L271.141 154.765L274.294 154.765L274.294 157.918L277.447 157.918L277.447 161.071L280.599 161.071L280.599 164.223L274.294 164.223L274.294 167.376Z" fill="#000000" fill-rule="evenodd" opacity="1" stroke="#000000" stroke-linecap="round" stroke-linejoin="round" stroke-width="0.803622"/>
<path d="M271.141 164.223L274.269 164.223L274.269 161.096L271.141 161.096L271.141 164.223Z" fill="#000000" fill-rule="evenodd" opacity="1" stroke="#000000" stroke-linecap="round" stroke-linejoin="round" stroke-width="0.803622"/>
<path d="M283.752 151.612L286.88 151.612L286.88 148.485L283.752 148.485L283.752 151.612Z" fill="#000000" fill-rule="evenodd" opacity="1" stroke="#000000" stroke-linecap="round" stroke-linejoin="round" stroke-width="0.803622"/>
<path d="M302.669 167.376L308.949 167.376L308.975 151.612L318.408 151.612L318.408 145.332L312.127 145.332L312.127 148.459L308.949 148.485L308.949 145.332L302.669 145.332L302.669 167.376Z" fill="#000000" fill-rule="evenodd" opacity="1" stroke="#000000" stroke-linecap="round" stroke-linejoin="round" stroke-width="0.803622"/>
<path d="M321.586 167.376L327.866 167.376L327.866 145.332L321.586 145.332L321.586 167.376Z" fill="#000000" fill-rule="evenodd" opacity="1" stroke="#000000" stroke-linecap="round" stroke-linejoin="round" stroke-width="0.803622"/>
<path d="M321.586 142.154L327.866 142.154L327.866 139.026L321.586 139.026L321.586 142.154Z" fill="#000000" fill-rule="evenodd" opacity="1" stroke="#000000" stroke-linecap="round" stroke-linejoin="round" stroke-width="0.803622"/>
<path d="M331.044 173.682L334.172 173.682L334.172 170.554L331.044 170.554L331.044 173.682Z" fill="#000000" fill-rule="evenodd" opacity="1" stroke="#000000" stroke-linecap="round" stroke-linejoin="round" stroke-width="0.803622"/>
<path d="M334.197 176.835L346.783 176.835L346.808 173.682L349.936 173.682L349.936 145.332L334.197 145.332L334.197 148.459L343.655 148.459L343.655 164.223L337.325 164.249L337.325 148.485L331.044 148.485L331.044 164.223L334.197 164.223L334.197 167.376L343.655 167.376L343.655 173.682L334.197 173.682L334.197 176.835Z" fill="#000000" fill-rule="evenodd" opacity="1" stroke="#000000" stroke-linecap="round" stroke-linejoin="round" stroke-width="0.803622"/>
<path d="M353.114 167.376L359.394 167.376L359.419 148.459L365.725 148.459L365.725 167.376L372.005 167.376L372.005 148.485L368.853 148.485L368.853 145.332L359.394 145.332L359.394 139.026L353.114 139.026L353.114 167.376Z" fill="#000000" fill-rule="evenodd" opacity="1" stroke="#000000" stroke-linecap="round" stroke-linejoin="round" stroke-width="0.803622"/>
<path d="M381.489 167.376L387.77 167.376L387.77 164.249L384.617 164.249L384.642 148.459L387.77 148.459L387.77 145.332L384.617 145.332L384.617 139.026L378.336 139.026L378.336 145.307L375.184 145.332L375.184 148.459L378.336 148.459L378.336 164.223L381.489 164.223L381.489 167.376Z" fill="#000000" fill-rule="evenodd" opacity="1" stroke="#000000" stroke-linecap="round" stroke-linejoin="round" stroke-width="0.803622"/>
<path d="M403.559 167.376L409.839 167.376L409.864 148.459L416.17 148.459L416.17 167.376L422.45 167.376L422.45 148.485L419.298 148.485L419.298 145.332L403.559 145.332L403.559 167.376Z" fill="#000000" fill-rule="evenodd" opacity="1" stroke="#000000" stroke-linecap="round" stroke-linejoin="round" stroke-width="0.803622"/>
<path d="M428.781 167.376L441.367 167.376L441.392 164.223L444.52 164.223L444.52 148.485L441.367 148.485L441.367 145.332L438.239 145.332L438.239 164.223L431.909 164.249L431.934 148.459L438.214 148.459L438.214 145.332L428.781 145.332L428.781 148.459L425.628 148.485L425.628 164.223L428.781 164.223L428.781 167.376Z" fill="#000000" fill-rule="evenodd" opacity="1" stroke="#000000" stroke-linecap="round" stroke-linejoin="round" stroke-width="0.803622"/>
<path d="M447.698 167.376L472.895 167.376L472.895 164.249L466.59 164.249L466.59 145.332L460.309 145.332L460.309 164.223L453.978 164.249L453.978 145.332L447.698 145.332L447.698 167.376Z" fill="#000000" fill-rule="evenodd" opacity="1" stroke="#000000" stroke-linecap="round" stroke-linejoin="round" stroke-width="0.803622"/>
<path d="M472.92 164.223L476.048 164.223L476.073 161.071L479.201 161.071L479.201 145.332L472.92 145.332L472.92 164.223Z" fill="#000000" fill-rule="evenodd" opacity="1" stroke="#000000" stroke-linecap="round" stroke-linejoin="round" stroke-width="0.803622"/>
<path d="M225.117 54.52L226.433 54.5171L226.422 49.6611L226.422 49.6611L226.435 49.3732L226.472 49.1069L226.536 48.8624L226.624 48.6395L226.624 48.6395L226.74 48.4365L226.877 48.2589L227.034 48.1068L227.213 47.9802L227.213 47.9802L227.413 47.8805L227.629 47.8091L227.859 47.766L228.105 47.7513L228.105 47.7513L228.334 47.7565L228.536 47.773L228.536 47.773L228.703 47.7973L228.809 47.8254L228.806 46.5471L228.806 46.5471L228.713 46.5322L228.586 46.5173L228.586 46.5173L228.441 46.5006L228.276 46.4953L228.276 46.4953L227.955 46.5211L227.656 46.5969L227.38 46.7228L227.127 46.8987L227.127 46.8987L226.904 47.1172L226.716 47.3705L226.565 47.6587L226.449 47.9819L226.419 47.9819L226.416 46.6507L225.1 46.6536L225.117 54.52Z" fill="#000000" fill-rule="evenodd" opacity="1" stroke="#000000" stroke-linecap="round" stroke-linejoin="round" stroke-width="0.4"/>
<path d="M233.127 54.6537L233.127 54.6537L233.443 54.6421L233.748 54.6089L234.041 54.5538L234.322 54.4771L234.322 54.4771L234.59 54.3773L234.844 54.2604L235.082 54.1266L235.304 53.9757L235.304 53.9757L235.51 53.8065L235.695 53.6251L235.861 53.4313L236.006 53.2254L236.006 53.2254L236.134 53.0095L236.24 52.7861L236.322 52.5553L236.382 52.3169L236.397 52.2412L235.104 52.244L235.081 52.3122L235.081 52.3122L235.016 52.4778L234.931 52.634L234.827 52.7807L234.704 52.9181L234.704 52.9181L234.564 53.0437L234.408 53.1551L234.236 53.2524L234.047 53.3356L234.047 53.3356L233.844 53.4022L233.628 53.4499L233.398 53.4788L233.155 53.4888L233.155 53.4888L232.811 53.4702L232.491 53.4127L232.195 53.3165L231.922 53.1814L231.922 53.1814L231.675 53.0061L231.457 52.7966L231.269 52.5531L231.11 52.2755L231.11 52.2755L230.987 51.9656L230.899 51.6255L230.846 51.255L230.827 50.8541L230.826 50.3473L230.826 50.3473L230.843 49.9261L230.896 49.5397L230.985 49.1883L231.11 48.8717L231.11 48.8717L231.267 48.5877L231.449 48.3415L231.659 48.133L231.895 47.9623L231.895 47.9623L232.152 47.8261L232.426 47.7286L232.715 47.6698L233.021 47.6497L233.021 47.6497L233.326 47.6675L233.613 47.7222L233.883 47.8138L234.134 47.9423L234.134 47.9423L234.363 48.1049L234.566 48.3063L234.742 48.5465L234.892 48.8256L234.892 48.8256L235.015 49.144L235.104 49.5021L235.157 49.9L235.175 50.3378L235.176 50.8445L235.84 49.89L230.152 49.9025L230.154 50.9312L236.493 50.9173L236.492 50.4332L236.492 50.4332L236.464 49.8612L236.385 49.3253L236.254 48.8254L236.071 48.3616L236.071 48.3616L235.839 47.9409L235.563 47.5704L235.24 47.2501L234.873 46.98L234.873 46.98L234.675 46.8635L234.468 46.7625L234.251 46.6772L234.025 46.6075L233.789 46.5534L233.544 46.5149L233.29 46.4921L233.026 46.4849L233.026 46.4849L232.762 46.4936L232.507 46.5186L232.26 46.56L232.022 46.6176L231.793 46.6915L231.573 46.7816L231.362 46.8881L231.159 47.0109L231.159 47.0109L230.966 47.1464L230.785 47.2949L230.614 47.4564L230.455 47.6308L230.307 47.8182L230.17 48.0186L230.044 48.232L229.929 48.4583L229.929 48.4583L229.739 48.9386L229.603 49.4556L229.522 50.0093L229.495 50.5999L229.495 50.6074L229.495 50.6074L229.524 51.204L229.606 51.7607L229.742 52.2776L229.931 52.7546L229.931 52.7546L230.047 52.9749L230.175 53.1824L230.314 53.3771L230.464 53.559L230.627 53.7281L230.8 53.8845L230.986 54.028L231.182 54.1588L231.182 54.1588L231.392 54.2753L231.611 54.3762L231.839 54.4615L232.078 54.5312L232.326 54.5853L232.583 54.6237L232.851 54.6465L233.127 54.6537Z" fill="#000000" fill-rule="evenodd" opacity="1" stroke="#000000" stroke-linecap="round" stroke-linejoin="round" stroke-width="0.4"/>
<path d="M241.085 54.6362L241.085 54.6362L241.519 54.6135L241.928 54.5474L242.312 54.4378L242.672 54.2848L242.672 54.2848L243.007 54.0912L243.309 53.8674L243.577 53.6134L243.812 53.3292L243.812 53.3292L244.014 53.0173L244.172 52.6874L244.288 52.3397L244.362 51.9741L244.369 51.9211L243.076 51.924L243.061 51.9845L243.061 51.9845L242.957 52.2986L242.81 52.5826L242.621 52.8364L242.39 53.0601L242.39 53.0601L242.121 53.2393L241.814 53.3677L241.467 53.445L241.082 53.4714L241.082 53.4714L240.752 53.4504L240.441 53.3858L240.15 53.2777L239.879 53.1261L239.879 53.1261L239.635 52.9337L239.418 52.7035L239.229 52.4354L239.067 52.1294L239.067 52.1294L238.941 51.7879L238.85 51.4132L238.795 51.0054L238.776 50.5643L238.776 50.5568L238.776 50.5568L238.793 50.1256L238.846 49.7246L238.935 49.3537L239.06 49.0131L239.06 49.0131L239.218 48.7026L239.403 48.4299L239.617 48.195L239.86 47.9978L239.86 47.9978L240.127 47.8383L240.415 47.7242L240.724 47.6555L241.054 47.6321L241.054 47.6321L241.266 47.6386L241.465 47.6591L241.652 47.6935L241.828 47.7419L241.991 47.8043L242.142 47.8807L242.282 47.971L242.409 48.0754L242.409 48.0754L242.634 48.307L242.815 48.5567L242.952 48.8244L243.047 49.1102L243.062 49.1707L244.348 49.1679L244.34 49.1074L244.34 49.1074L244.278 48.7752L244.174 48.4516L244.03 48.1366L243.846 47.8302L243.846 47.8302L243.626 47.5423L243.368 47.2828L243.072 47.0518L242.739 46.8493L242.739 46.8493L242.37 46.6813L241.965 46.5617L241.526 46.4903L241.052 46.4672L241.052 46.4672L240.784 46.4756L240.524 46.4996L240.273 46.5391L240.031 46.5943L239.797 46.665L239.572 46.7513L239.355 46.8532L239.147 46.9706L239.147 46.9706L238.948 47.1024L238.761 47.2471L238.586 47.4048L238.422 47.5755L238.269 47.7591L238.128 47.9557L237.998 48.1653L237.879 48.3879L237.879 48.3879L237.773 48.622L237.681 48.8663L237.604 49.1207L237.541 49.3852L237.492 49.6598L237.457 49.9446L237.436 50.2395L237.43 50.5446L237.43 50.5522L237.43 50.5522L237.438 50.8591L237.459 51.1558L237.495 51.4423L237.544 51.7186L237.607 51.9848L237.685 52.2407L237.776 52.4865L237.881 52.722L237.881 52.722L237.999 52.9442L238.128 53.1536L238.269 53.3502L238.422 53.534L238.586 53.705L238.761 53.8632L238.948 54.0086L239.147 54.1413L239.147 54.1413L239.358 54.2578L239.578 54.3587L239.807 54.444L240.044 54.5137L240.291 54.5678L240.547 54.6062L240.811 54.629L241.085 54.6362Z" fill="#000000" fill-rule="evenodd" opacity="1" stroke="#000000" stroke-linecap="round" stroke-linejoin="round" stroke-width="0.4"/>
<path d="M248.543 54.6198L248.543 54.6198L248.953 54.5943L249.337 54.5198L249.694 54.3961L250.024 54.2233L250.024 54.2233L250.328 54.0042L250.598 53.7492L250.834 53.4585L251.036 53.1318L251.066 53.1318L251.069 54.463L252.385 54.4601L252.361 43.5454L251.045 43.5483L251.054 47.9127L251.024 47.9127L251.024 47.9127L250.82 47.5908L250.58 47.3048L250.305 47.0549L249.993 46.8409L249.993 46.8409L249.653 46.6696L249.291 46.5475L248.907 46.4746L248.502 46.4509L248.502 46.4509L248.26 46.4593L248.025 46.4836L247.798 46.5237L247.578 46.5796L247.365 46.6513L247.16 46.7389L246.962 46.8423L246.771 46.9614L246.771 46.9614L246.418 47.2378L246.105 47.5661L245.833 47.9464L245.602 48.3785L245.602 48.3785L245.421 48.8568L245.292 49.3757L245.215 49.9351L245.19 50.5351L245.19 50.5427L245.19 50.5427L245.218 51.143L245.297 51.7035L245.428 52.2242L245.611 52.705L245.611 52.705L245.841 53.1366L246.112 53.5171L246.425 53.8463L246.779 54.1245L246.779 54.1245L246.972 54.2411L247.173 54.342L247.382 54.4274L247.599 54.4971L247.823 54.5512L248.055 54.5897L248.295 54.6126L248.543 54.6198Z" fill="#000000" fill-rule="evenodd" opacity="1" stroke="#000000" stroke-linecap="round" stroke-linejoin="round" stroke-width="0.4"/>
<path d="M248.797 53.4544L248.797 53.4544L248.461 53.4334L248.149 53.3689L247.859 53.2608L247.594 53.1091L247.594 53.1091L247.355 52.913L247.145 52.679L246.964 52.4071L246.813 52.0973L246.813 52.0973L246.693 51.7534L246.607 51.3792L246.555 50.9746L246.537 50.5397L246.537 50.5322L246.537 50.5322L246.553 50.0977L246.603 49.6943L246.687 49.3221L246.806 48.981L246.806 48.981L246.956 48.6738L247.135 48.4035L247.344 48.1699L247.583 47.9732L247.583 47.9732L247.847 47.8171L248.136 47.7054L248.448 47.638L248.784 47.6151L248.784 47.6151L249.107 47.6371L249.411 47.7045L249.694 47.8173L249.958 47.9756L249.958 47.9756L250.202 48.175L250.418 48.4114L250.607 48.6847L250.769 48.9949L250.769 48.9949L250.899 49.3341L250.992 49.7017L251.048 50.0977L251.068 50.5222L251.068 50.5298L251.068 50.5298L251.05 50.9548L250.996 51.3525L250.904 51.7229L250.776 52.0659L250.776 52.0659L250.619 52.3768L250.433 52.6509L250.219 52.8883L249.976 53.0888L249.976 53.0888L249.71 53.2482L249.425 53.3623L249.121 53.431L248.797 53.4544Z" fill="#fafafa" fill-rule="evenodd" opacity="1" stroke="#000000" stroke-linecap="round" stroke-linejoin="round" stroke-width="0.6"/>
<path d="M254.246 54.456L255.562 54.4531L255.544 46.5867L254.228 46.5896L254.246 54.456Z" fill="#000000" fill-rule="evenodd" opacity="1" stroke="#000000" stroke-linecap="round" stroke-linejoin="round" stroke-width="0.4"/>
<path d="M254.883 45.2569L254.883 45.2569L255.05 45.2414L255.203 45.1956L255.341 45.1197L255.465 45.0135L255.465 45.0135L255.571 44.8861L255.646 44.7465L255.691 44.5947L255.706 44.4306L255.706 44.4306L255.691 44.2637L255.645 44.1111L255.569 43.9728L255.463 43.8487L255.463 43.8487L255.338 43.7431L255.199 43.6677L255.047 43.6227L254.88 43.6079L254.88 43.6079L254.716 43.6234L254.564 43.6691L254.425 43.7451L254.298 43.8513L254.298 43.8513L254.192 43.9758L254.117 44.1145L254.072 44.2673L254.057 44.4342L254.057 44.4342L254.073 44.5982L254.118 44.7499L254.194 44.8892L254.3 45.0161L254.3 45.0161L254.428 45.1217L254.567 45.197L254.719 45.2421L254.883 45.2569Z" fill="#000000" fill-rule="evenodd" opacity="1" stroke="#000000" stroke-linecap="round" stroke-linejoin="round" stroke-width="0.4"/>
<path d="M257.778 54.4483L259.094 54.4454L259.079 47.6681L260.683 47.6646L260.68 46.5754L259.062 46.5789L259.06 45.6183L259.06 45.6183L259.076 45.346L259.126 45.1114L259.211 44.9145L259.33 44.7554L259.33 44.7554L259.483 44.6293L259.67 44.5391L259.891 44.4847L260.146 44.4662L260.146 44.4662L260.441 44.4731L260.441 44.4731L260.714 44.4952L260.711 43.4287L260.711 43.4287L260.549 43.4083L260.348 43.3917L260.348 43.3917L259.909 43.3775L259.909 43.3775L259.646 43.3867L259.399 43.4132L259.17 43.4568L258.958 43.5177L258.764 43.5957L258.587 43.691L258.427 43.8035L258.284 43.9333L258.284 43.9333L258.16 44.0789L258.053 44.243L257.963 44.4254L257.889 44.6262L257.831 44.8455L257.79 45.0831L257.766 45.3392L257.758 45.6136L257.761 46.5818L256.664 46.5842L256.666 47.6734L257.763 47.671L257.778 54.4483Z" fill="#000000" fill-rule="evenodd" opacity="1" stroke="#000000" stroke-linecap="round" stroke-linejoin="round" stroke-width="0.4"/>
<path d="M262.483 54.4379L263.799 54.435L263.784 47.6578L265.387 47.6542L265.385 46.565L263.766 46.5686L263.764 45.608L263.764 45.608L263.781 45.3356L263.831 45.1011L263.916 44.9042L264.035 44.7451L264.035 44.7451L264.188 44.619L264.375 44.5288L264.596 44.4744L264.851 44.4559L264.851 44.4559L265.146 44.4628L265.146 44.4628L265.418 44.4849L265.416 43.4184L265.416 43.4184L265.253 43.3979L265.053 43.3813L265.053 43.3813L264.614 43.3672L264.614 43.3672L264.35 43.3764L264.104 43.4028L263.875 43.4465L263.663 43.5073L263.469 43.5854L263.292 43.6807L263.132 43.7932L262.989 43.9229L262.989 43.9229L262.865 44.0686L262.758 44.2326L262.667 44.4151L262.593 44.6159L262.536 44.8351L262.495 45.0728L262.471 45.3288L262.463 45.6033L262.465 46.5715L261.369 46.5739L261.371 47.6631L262.468 47.6607L262.483 54.4379Z" fill="#000000" fill-rule="evenodd" opacity="1" stroke="#000000" stroke-linecap="round" stroke-linejoin="round" stroke-width="0.4"/>
<path d="M269.555 54.5737L269.555 54.5737L269.982 54.5543L270.385 54.4981L270.765 54.4051L271.12 54.2752L271.12 54.2752L271.449 54.109L271.74 53.9146L271.993 53.6918L272.208 53.4408L272.208 53.4408L272.382 53.1658L272.507 52.871L272.582 52.5564L272.606 52.2221L272.606 52.2146L272.606 52.2146L272.598 52.01L272.575 51.8161L272.537 51.6329L272.483 51.4603L272.415 51.2985L272.331 51.1472L272.233 51.0067L272.119 50.8768L272.119 50.8768L271.986 50.7538L271.832 50.6378L271.655 50.5286L271.456 50.4263L271.235 50.331L270.991 50.2425L270.726 50.161L270.438 50.0863L269.189 49.7865L269.189 49.7865L268.886 49.7002L268.629 49.5986L268.417 49.4818L268.25 49.3498L268.25 49.3498L268.124 49.2026L268.034 49.0402L267.98 48.8626L267.961 48.6697L267.961 48.6622L267.961 48.6622L267.972 48.4938L268.006 48.3368L268.062 48.1911L268.142 48.0566L268.142 48.0566L268.246 47.9316L268.37 47.8217L268.514 47.7268L268.678 47.647L268.678 47.647L268.86 47.5837L269.058 47.5384L269.272 47.511L269.502 47.5015L269.502 47.5015L269.849 47.5225L270.158 47.587L270.428 47.6952L270.66 47.8469L270.66 47.8469L270.854 48.0346L271.003 48.2508L271.108 48.4955L271.169 48.7686L271.176 48.8215L272.432 48.8187L272.424 48.7204L272.424 48.7204L272.381 48.4L272.296 48.0967L272.171 47.8105L272.006 47.5414L272.006 47.5414L271.806 47.2913L271.572 47.0696L271.302 46.8763L270.998 46.7115L270.998 46.7115L270.666 46.5766L270.305 46.4805L269.916 46.4232L269.499 46.4047L269.499 46.4047L269.088 46.4241L268.7 46.4802L268.335 46.5732L267.995 46.703L267.995 46.703L267.687 46.8654L267.415 47.056L267.178 47.275L266.976 47.5222L266.976 47.5222L266.817 47.7934L266.704 48.0844L266.637 48.3951L266.615 48.7256L266.615 48.7332L266.615 48.7332L266.624 48.9401L266.65 49.1373L266.693 49.3248L266.753 49.5025L266.83 49.6705L266.924 49.8288L267.035 49.9774L267.163 50.1162L267.163 50.1162L267.308 50.2441L267.471 50.3637L267.652 50.475L267.85 50.578L268.066 50.6726L268.3 50.759L268.552 50.837L268.821 50.9068L270.07 51.2066L270.07 51.2066L270.381 51.2948L270.639 51.3944L270.846 51.5055L271.001 51.6281L271.001 51.6281L271.114 51.7668L271.195 51.9265L271.243 52.1069L271.26 52.3083L271.26 52.3159L271.26 52.3159L271.247 52.488L271.209 52.6488L271.146 52.7983L271.057 52.9366L271.057 52.9366L270.944 53.0583L270.81 53.1659L270.653 53.2594L270.475 53.3387L270.475 53.3387L270.276 53.3987L270.058 53.4417L269.819 53.4678L269.56 53.4769L269.56 53.4769L269.182 53.4574L268.847 53.3971L268.557 53.2961L268.312 53.1544L268.312 53.1544L268.108 52.9723L267.946 52.7581L267.824 52.5116L267.742 52.2328L267.727 52.1572L266.411 52.1601L266.419 52.2282L266.419 52.2282L266.48 52.5689L266.579 52.8878L266.716 53.1848L266.89 53.46L266.89 53.46L267.105 53.7097L267.355 53.9299L267.639 54.1207L267.959 54.2822L267.959 54.2822L268.311 54.4105L268.695 54.5018L269.109 54.5562L269.555 54.5737Z" fill="#000000" fill-rule="evenodd" opacity="1" stroke="#000000" stroke-linecap="round" stroke-linejoin="round" stroke-width="0.4"/>
<path d="M262.562 15.0571L262.563 18.5894L261.042 18.5896L261.042 18.5896L260.68 18.6118L260.333 18.6785L260.003 18.7896L259.688 18.9452L259.688 18.9452L259.397 19.1386L259.136 19.3632L258.905 19.6189L258.705 19.9059L258.705 19.9059L258.546 20.2175L258.433 20.547L258.365 20.8944L258.342 21.2599L258.342 21.2599L258.365 21.6258L258.433 21.9747L258.546 22.3065L258.705 22.6214L258.705 22.6214L258.906 22.9154L259.137 23.1773L259.397 23.407L259.689 23.6046L259.689 23.6046L260.003 23.7634L260.334 23.8768L260.68 23.9449L261.043 23.9675L261.043 23.9675L261.409 23.9448L261.757 23.8767L262.089 23.7632L262.404 23.6043L262.404 23.6043L262.695 23.4067L262.954 23.1769L263.183 22.915L263.38 22.6209L263.38 22.6209L263.539 22.3061L263.652 21.9742L263.72 21.6253L263.743 21.2594L263.743 19.7466L267.23 19.7463L267.23 21.2591L267.23 21.2591L267.252 21.625L267.321 21.9739L267.434 22.3057L267.593 22.6206L267.593 22.6206L267.793 22.9146L268.024 23.1765L268.285 23.4062L268.576 23.6038L268.576 23.6038L268.891 23.7626L269.221 23.876L269.568 23.9441L269.93 23.9667L269.93 23.9667L270.296 23.944L270.645 23.8759L270.977 23.7624L271.292 23.6035L271.292 23.6035L271.583 23.4059L271.842 23.1761L272.07 22.9142L272.267 22.6201L272.267 22.6201L272.426 22.3053L272.54 21.9734L272.608 21.6245L272.63 21.2586L272.63 21.2586L272.608 20.8932L272.54 20.5457L272.426 20.2162L272.267 19.9047L272.267 19.9047L272.07 19.6177L271.842 19.362L271.582 19.1375L271.291 18.9441L271.291 18.9441L270.977 18.7886L270.645 18.6776L270.296 18.6109L269.93 18.5888L268.409 18.5889L268.409 15.0565L269.929 15.0564L269.929 15.0564L270.295 15.0342L270.644 14.9675L270.976 14.8563L271.291 14.7008L271.291 14.7008L271.582 14.5074L271.841 14.2828L272.07 14.027L272.267 13.7401L272.267 13.7401L272.425 13.4285L272.539 13.099L272.607 12.7515L272.63 12.3861L272.63 12.3861L272.607 12.0202L272.539 11.6713L272.425 11.3395L272.266 11.0246L272.266 11.0246L272.069 10.7306L271.841 10.4687L271.581 10.239L271.291 10.0414L271.291 10.0414L270.976 9.87928L270.644 9.76348L270.295 9.69403L269.929 9.6709L269.929 9.6709L269.566 9.6941L269.22 9.76362L268.889 9.87947L268.575 10.0417L268.575 10.0417L268.284 10.2393L268.023 10.4691L267.792 10.731L267.592 11.025L267.592 11.025L267.433 11.3399L267.32 11.6718L267.252 12.0207L267.229 12.3866L267.229 13.8994L263.742 13.8997L263.742 12.3869L263.742 12.3869L263.719 12.021L263.651 11.6721L263.538 11.3403L263.379 11.0254L263.379 11.0254L263.182 10.7314L262.953 10.4695L262.694 10.2398L262.403 10.0422L262.403 10.0422L262.088 9.88008L261.756 9.7643L261.407 9.69483L261.041 9.6717L261.041 9.6717L260.679 9.69489L260.332 9.76442L260.002 9.88027L259.687 10.0424L259.687 10.0424L259.396 10.2401L259.135 10.4699L258.905 10.7318L258.704 11.0259L258.704 11.0259L258.545 11.3407L258.432 11.6726L258.364 12.0215L258.341 12.3874L258.341 12.3874L258.364 12.7528L258.432 13.1003L258.546 13.4298L258.705 13.7413L258.705 13.7413L258.905 14.0282L259.136 14.284L259.397 14.5085L259.688 14.7018L259.688 14.7018L260.002 14.8573L260.333 14.9684L260.679 15.035L261.042 15.0572L262.562 15.0571Z" fill="#000000" fill-rule="evenodd" opacity="1" stroke="#000000" stroke-linecap="round" stroke-linejoin="round" stroke-width="0.6"/>
<path d="M261.042 13.9151L261.042 13.9151L260.838 13.9023L260.643 13.864L260.456 13.8002L260.278 13.7109L260.278 13.7109L260.116 13.5965L259.97 13.4651L259.84 13.3167L259.726 13.1512L259.726 13.1512L259.636 12.973L259.572 12.7863L259.534 12.591L259.521 12.3873L259.521 12.3873L259.534 12.1802L259.572 11.9826L259.636 11.7945L259.725 11.6158L259.725 11.6158L259.839 11.4507L259.969 11.3037L260.115 11.1746L260.278 11.0635L260.278 11.0635L260.456 10.9709L260.643 10.9046L260.838 10.8649L261.042 10.8517L261.042 10.8517L261.245 10.8649L261.439 10.9046L261.623 10.9708L261.798 11.0634L261.798 11.0634L261.963 11.1745L262.11 11.3035L262.239 11.4505L262.35 11.6155L262.35 11.6155L262.443 11.7942L262.509 11.9823L262.549 12.18L262.562 12.387L262.562 13.9149L261.042 13.9151Z" fill="#fafafa" fill-rule="evenodd" opacity="1" stroke="#000000" stroke-linecap="round" stroke-linejoin="round" stroke-width="0.6"/>
<path d="M269.929 13.9143L268.409 13.9144L268.409 12.3865L268.409 12.3865L268.422 12.1794L268.46 11.9818L268.524 11.7937L268.613 11.6149L268.613 11.6149L268.727 11.45L268.857 11.3029L269.003 11.1738L269.165 11.0627L269.165 11.0627L269.343 10.97L269.53 10.9039L269.725 10.8641L269.929 10.8509L269.929 10.8509L270.133 10.8641L270.328 10.9038L270.515 10.9699L270.693 11.0626L270.693 11.0626L270.858 11.1737L271.005 11.3027L271.134 11.4497L271.245 11.6147L271.245 11.6147L271.335 11.7934L271.399 11.9815L271.437 12.1791L271.45 12.3862L271.45 12.3862L271.437 12.59L271.399 12.7852L271.335 12.972L271.245 13.1502L271.245 13.1502L271.134 13.3157L271.005 13.4641L270.858 13.5955L270.693 13.71L270.693 13.71L270.515 13.7993L270.328 13.8632L270.133 13.9015L269.929 13.9143Z" fill="#fafafa" fill-rule="evenodd" opacity="1" stroke="#000000" stroke-linecap="round" stroke-linejoin="round" stroke-width="0.6"/>
<path d="M263.743 18.6044L263.742 15.0418L267.229 15.0415L267.23 18.6041L263.743 18.6044Z" fill="#fafafa" fill-rule="evenodd" opacity="1" stroke="#000000" stroke-linecap="round" stroke-linejoin="round" stroke-width="0.6"/>
<path d="M261.042 19.7242L262.563 19.724L262.563 21.2519L262.563 21.2519L262.55 21.4557L262.51 21.6509L262.444 21.8377L262.351 22.0159L262.351 22.0159L262.24 22.1809L262.111 22.328L261.964 22.457L261.799 22.5681L261.799 22.5681L261.624 22.6608L261.44 22.727L261.246 22.7667L261.043 22.78L261.043 22.78L260.839 22.7668L260.644 22.7271L260.457 22.6609L260.279 22.5683L260.279 22.5683L260.116 22.4572L259.97 22.3281L259.84 22.1811L259.726 22.0162L259.726 22.0162L259.637 21.8379L259.573 21.6512L259.535 21.456L259.522 21.2522L259.522 21.2522L259.535 21.0451L259.573 20.8475L259.637 20.6594L259.726 20.4807L259.726 20.4807L259.84 20.3157L259.97 20.1686L260.116 20.0396L260.278 19.9285L260.278 19.9285L260.457 19.8391L260.643 19.7753L260.839 19.7369L261.042 19.7242Z" fill="#fafafa" fill-rule="evenodd" opacity="1" stroke="#000000" stroke-linecap="round" stroke-linejoin="round" stroke-width="0.6"/>
<path d="M269.93 19.7233L269.93 19.7233L270.134 19.7361L270.329 19.7744L270.516 19.8382L270.694 19.9275L270.694 19.9275L270.859 20.0386L271.006 20.1676L271.135 20.3147L271.246 20.4796L271.246 20.4796L271.335 20.6583L271.399 20.8465L271.438 21.0441L271.45 21.2511L271.45 21.2511L271.438 21.4549L271.399 21.6501L271.336 21.8369L271.246 22.0151L271.246 22.0151L271.135 22.1801L271.006 22.3271L270.859 22.4562L270.694 22.5673L270.694 22.5673L270.516 22.66L270.329 22.7262L270.134 22.7659L269.93 22.7792L269.93 22.7792L269.726 22.766L269.531 22.7263L269.344 22.6601L269.166 22.5675L269.166 22.5675L269.004 22.4564L268.858 22.3273L268.728 22.1803L268.614 22.0153L268.614 22.0153L268.525 21.8371L268.461 21.6504L268.422 21.4552L268.41 21.2514L268.41 19.7235L269.93 19.7233Z" fill="#fafafa" fill-rule="evenodd" opacity="1" stroke="#000000" stroke-linecap="round" stroke-linejoin="round" stroke-width="0.6"/>
<path d="M189.89 43.9043" fill="#000000" fill-rule="evenodd" opacity="1" stroke="#646464" stroke-linecap="round" stroke-linejoin="round" stroke-width="0.803622"/>
<path d="M282.912 12.2575" fill="#000000" fill-rule="evenodd" opacity="1" stroke="#646464" stroke-linecap="round" stroke-linejoin="round" stroke-width="0.803622"/>
</g>
</svg>
